<svg xmlns="http://www.w3.org/2000/svg" width="108.02" height="119.988" viewBox="0 0 108.02 119.988">
  <g id="Group_167" data-name="Group 167" transform="translate(-153.563 -171.86)">
    <g id="Group_1" data-name="Group 1" transform="translate(153.563 255.377)">
      <path id="Path_1" data-name="Path 1" d="M150.89,225.5V211.959h2.7l3.2,9.585q.444,1.339.648,2c.155-.492.393-1.213.722-2.17l3.241-9.419h2.41V225.5h-1.728V214.165L158.151,225.5h-1.618l-3.916-11.524V225.5Z" transform="translate(-150.648 -211.727)" fill="#babfbb"/>
      <path id="Path_2" data-name="Path 2" d="M169.475,225.5v-5.735l-5.219-7.8h2.178l2.67,4.081q.737,1.147,1.376,2.29.609-1.061,1.476-2.392l2.624-3.979h2.088l-5.4,7.8V225.5Z" transform="translate(-142.038 -211.727)" fill="#babfbb"/>
      <path id="Path_3" data-name="Path 3" d="M177.015,221.239l1.69-.148a3.751,3.751,0,0,0,.559,1.669,3.062,3.062,0,0,0,1.361,1.051,5.163,5.163,0,0,0,2.08.4,4.993,4.993,0,0,0,1.809-.3,2.5,2.5,0,0,0,1.169-.837,1.946,1.946,0,0,0,.385-1.159,1.772,1.772,0,0,0-.37-1.113,2.744,2.744,0,0,0-1.22-.8,23.777,23.777,0,0,0-2.41-.659,12.247,12.247,0,0,1-2.614-.847,3.645,3.645,0,0,1-1.445-1.259,3.088,3.088,0,0,1-.477-1.685,3.429,3.429,0,0,1,.584-1.917,3.6,3.6,0,0,1,1.7-1.353,6.458,6.458,0,0,1,2.486-.462,6.768,6.768,0,0,1,2.654.485,3.837,3.837,0,0,1,1.769,1.425,4.093,4.093,0,0,1,.664,2.134l-1.718.13a2.757,2.757,0,0,0-.937-1.938,3.643,3.643,0,0,0-2.359-.658,3.784,3.784,0,0,0-2.369.6,1.786,1.786,0,0,0-.743,1.437,1.53,1.53,0,0,0,.526,1.2,7.126,7.126,0,0,0,2.7.967,17.764,17.764,0,0,1,3,.863,4.093,4.093,0,0,1,1.746,1.381,3.364,3.364,0,0,1,.562,1.925,3.681,3.681,0,0,1-.618,2.037,4.09,4.09,0,0,1-1.777,1.488,6.2,6.2,0,0,1-2.609.529,7.77,7.77,0,0,1-3.081-.536,4.3,4.3,0,0,1-1.948-1.611A4.572,4.572,0,0,1,177.015,221.239Z" transform="translate(-133.819 -211.818)" fill="#8b3534"/>
      <path id="Path_4" data-name="Path 4" d="M189.616,225.5V211.959h1.792v6.715l6.725-6.715h2.428l-5.681,5.485,5.931,8.053h-2.366l-4.821-6.853-2.216,2.162V225.5Z" transform="translate(-125.702 -211.727)" fill="#8b3534"/>
      <path id="Path_5" data-name="Path 5" d="M202.123,225.5V211.959h1.792V225.5Z" transform="translate(-117.646 -211.727)" fill="#8b3534"/>
      <path id="Path_6" data-name="Path 6" d="M209.724,225.5V211.959h1.838l7.113,10.63v-10.63h1.717V225.5h-1.837l-7.113-10.638V225.5Z" transform="translate(-112.749 -211.727)" fill="#8b3534"/>
      <path id="Path_7" data-name="Path 7" d="M150.743,239.3v-13.54h1.792v5.559h7.039v-5.559h1.792V239.3h-1.792v-6.383h-7.039V239.3Z" transform="translate(-150.743 -202.834)" fill="#babfbb"/>
      <path id="Path_8" data-name="Path 8" d="M163.643,239.3v-13.54h9.791v1.6h-8v4.148h7.491V233.1h-7.491v4.609h8.313v1.6Z" transform="translate(-142.433 -202.834)" fill="#babfbb"/>
      <path id="Path_9" data-name="Path 9" d="M174.992,239.3l5.2-13.54h1.932l5.541,13.54h-2.04l-1.58-4.1h-5.661l-1.488,4.1Zm3.906-5.561h4.591L182.077,230q-.649-1.709-.96-2.808a17.323,17.323,0,0,1-.732,2.586Z" transform="translate(-135.123 -202.834)" fill="#babfbb"/>
      <path id="Path_10" data-name="Path 10" d="M188.127,239.3v-13.54h1.792v11.942h6.667v1.6Z" transform="translate(-126.661 -202.834)" fill="#babfbb"/>
      <path id="Path_11" data-name="Path 11" d="M202.163,239.3V227.361H197.7v-1.6h10.733v1.6h-4.479V239.3Z" transform="translate(-120.494 -202.834)" fill="#babfbb"/>
      <path id="Path_12" data-name="Path 12" d="M209.981,239.3v-13.54h1.792v5.559h7.04v-5.559H220.6V239.3h-1.791v-6.383h-7.04V239.3Z" transform="translate(-112.584 -202.834)" fill="#babfbb"/>
    </g>
    <path id="Path_13" data-name="Path 13" d="M150.846,133.3v53.854q.856-2.038,1.843-4.532V135.144h62.965v62.965h-56.41c-.3.648-.6,1.258-.914,1.843H217.5V133.3Z" transform="translate(21.211 38.559)" fill="#8b3534"/>
    <path id="Path_14" data-name="Path 14" d="M175.412,149.59s-19.631,63.287-29.662,53.283c0,0-4.244-2.913-1-5.924C144.753,196.949,158.465,184.256,175.412,149.59Z" transform="translate(21.096 38.814)" fill="#744636"/>
    <path id="Path_15" data-name="Path 15" d="M196.328,143.74s15.606,39.382,7.34,39.8c0,0-4.069.575-3.789-2.468C199.879,181.069,202.143,168.444,196.328,143.74Z" transform="translate(21.922 38.722)" fill="#f2dbc9"/>
    <path id="Path_16" data-name="Path 16" d="M187.047,146.638s-1.142,49.22-10.179,45.651c0,0-4.24-1.1-2.562-4.179C174.306,188.11,182.075,175.585,187.047,146.638Z" transform="translate(21.571 38.768)" fill="#bf7256"/>
  </g>
</svg>
