<svg xmlns="http://www.w3.org/2000/svg" width="91.385" height="101.51" viewBox="0 0 91.385 101.51">
  <g id="Group_32" data-name="Group 32" transform="translate(-153.563 -171.86)">
    <g id="Group_1" data-name="Group 1" transform="translate(153.563 242.515)">
      <path id="Path_1" data-name="Path 1" d="M150.89,223.412V211.959h2.281l2.711,8.109q.376,1.133.548,1.7c.131-.416.332-1.027.611-1.836l2.742-7.969h2.039v11.453H160.36v-9.587l-3.327,9.587h-1.369l-3.313-9.749v9.749Z" transform="translate(-150.686 -211.763)" fill="#e2b6a6"/>
      <path id="Path_2" data-name="Path 2" d="M168.671,223.412V218.56l-4.415-6.6H166.1l2.259,3.452q.624.97,1.164,1.938.515-.9,1.249-2.024l2.22-3.366h1.767l-4.571,6.6v4.852Z" transform="translate(-145.46 -211.763)" fill="#e2b6a6"/>
      <path id="Path_3" data-name="Path 3" d="M177.015,219.788l1.43-.125a3.173,3.173,0,0,0,.473,1.412,2.591,2.591,0,0,0,1.152.889,4.368,4.368,0,0,0,1.76.341,4.225,4.225,0,0,0,1.53-.257,2.117,2.117,0,0,0,.989-.708,1.646,1.646,0,0,0,.325-.981,1.5,1.5,0,0,0-.313-.942,2.322,2.322,0,0,0-1.032-.676,20.111,20.111,0,0,0-2.039-.558,10.362,10.362,0,0,1-2.212-.716,3.084,3.084,0,0,1-1.223-1.065,2.612,2.612,0,0,1-.4-1.426,2.9,2.9,0,0,1,.494-1.622,3.042,3.042,0,0,1,1.437-1.145,5.463,5.463,0,0,1,2.1-.391,5.726,5.726,0,0,1,2.245.41,3.246,3.246,0,0,1,1.5,1.206,3.463,3.463,0,0,1,.562,1.805l-1.454.11a2.332,2.332,0,0,0-.793-1.64,3.082,3.082,0,0,0-2-.556,3.2,3.2,0,0,0-2,.5,1.511,1.511,0,0,0-.629,1.216,1.294,1.294,0,0,0,.445,1.014,6.028,6.028,0,0,0,2.287.818,15.031,15.031,0,0,1,2.534.73,3.463,3.463,0,0,1,1.477,1.168,2.846,2.846,0,0,1,.476,1.629,3.114,3.114,0,0,1-.523,1.723,3.46,3.46,0,0,1-1.5,1.259,5.247,5.247,0,0,1-2.207.448,6.573,6.573,0,0,1-2.607-.453,3.641,3.641,0,0,1-1.648-1.363A3.868,3.868,0,0,1,177.015,219.788Z" transform="translate(-140.472 -211.818)" fill="#fff"/>
      <path id="Path_4" data-name="Path 4" d="M189.616,223.412V211.959h1.516v5.681l5.689-5.681h2.054l-4.806,4.64,5.017,6.813h-2l-4.078-5.8-1.875,1.829v3.968Z" transform="translate(-135.545 -211.763)" fill="#fff"/>
      <path id="Path_5" data-name="Path 5" d="M202.123,223.412V211.959h1.516v11.453Z" transform="translate(-130.655 -211.763)" fill="#fff"/>
      <path id="Path_6" data-name="Path 6" d="M209.724,223.412V211.959h1.555l6.017,8.993v-8.993h1.452v11.453h-1.554l-6.017-9v9Z" transform="translate(-127.684 -211.763)" fill="#fff"/>
      <path id="Path_7" data-name="Path 7" d="M150.743,237.22V225.765h1.516v4.7h5.955v-4.7h1.516V237.22h-1.516v-5.4h-5.955v5.4Z" transform="translate(-150.743 -206.365)" fill="#e2b6a6"/>
      <path id="Path_8" data-name="Path 8" d="M163.643,237.22V225.765h8.283v1.351h-6.768v3.509h6.337v1.344h-6.337v3.9h7.033v1.352Z" transform="translate(-145.7 -206.365)" fill="#e2b6a6"/>
      <path id="Path_9" data-name="Path 9" d="M174.992,237.22l4.4-11.455h1.634l4.688,11.455h-1.726l-1.337-3.469H177.86L176.6,237.22Zm3.3-4.7h3.884l-1.195-3.171q-.549-1.446-.812-2.376a14.656,14.656,0,0,1-.619,2.188Z" transform="translate(-141.263 -206.365)" fill="#e2b6a6"/>
      <path id="Path_10" data-name="Path 10" d="M188.127,237.22V225.765h1.516v10.1h5.64v1.352Z" transform="translate(-136.127 -206.365)" fill="#e2b6a6"/>
      <path id="Path_11" data-name="Path 11" d="M201.476,237.22v-10.1H197.7v-1.351h9.08v1.351h-3.789v10.1Z" transform="translate(-132.384 -206.365)" fill="#e2b6a6"/>
      <path id="Path_12" data-name="Path 12" d="M209.981,237.22V225.765H211.5v4.7h5.956v-4.7h1.515V237.22h-1.515v-5.4H211.5v5.4Z" transform="translate(-127.583 -206.365)" fill="#e2b6a6"/>
    </g>
    <path id="Path_13" data-name="Path 13" d="M150.846,133.3v45.56q.724-1.724,1.56-3.834V134.861h53.268v53.268H157.951c-.253.548-.511,1.065-.773,1.56h50.056V133.3Z" transform="translate(18.363 38.559)" fill="#8b3534"/>
    <path id="Path_14" data-name="Path 14" d="M170.5,149.59s-16.608,53.541-25.094,45.077c0,0-3.591-2.464-.844-5.012C144.564,189.655,156.165,178.917,170.5,149.59Z" transform="translate(19.392 36.266)" fill="#744636"/>
    <path id="Path_15" data-name="Path 15" d="M196.328,143.74s13.2,33.317,6.21,33.668c0,0-3.442.486-3.206-2.088C199.332,175.32,201.247,164.639,196.328,143.74Z" transform="translate(11.96 37.09)" fill="#f2dbc9"/>
    <path id="Path_16" data-name="Path 16" d="M185.025,146.638s-.966,41.64-8.611,38.621c0,0-3.587-.927-2.168-3.536C174.246,181.723,180.818,171.127,185.025,146.638Z" transform="translate(15.116 36.682)" fill="#eda389"/>
  </g>
</svg>
