<svg xmlns="http://www.w3.org/2000/svg" width="165.887" height="184.266" viewBox="0 0 165.887 184.266">
  <g id="Group_353" data-name="Group 353" transform="translate(-153.563 -171.86)">
    <g id="Group_1" data-name="Group 1" transform="translate(153.563 300.117)">
      <path id="Path_1" data-name="Path 1" d="M150.89,232.749v-20.79h4.141l4.921,14.721q.682,2.057.995,3.078c.237-.755.6-1.863,1.108-3.333l4.977-14.466h3.7v20.79H168.08v-17.4l-6.04,17.4h-2.485l-6.014-17.7v17.7Z" transform="translate(-150.519 -211.603)" fill="#babfbb"/>
      <path id="Path_2" data-name="Path 2" d="M172.27,232.749v-8.807l-8.014-11.983H167.6l4.1,6.267q1.132,1.761,2.113,3.517.936-1.629,2.267-3.674l4.03-6.11h3.207l-8.3,11.983v8.807Z" transform="translate(-130.136 -211.603)" fill="#babfbb"/>
      <path id="Path_3" data-name="Path 3" d="M177.015,226.286l2.6-.227a5.76,5.76,0,0,0,.858,2.563,4.7,4.7,0,0,0,2.091,1.613,7.929,7.929,0,0,0,3.194.619,7.668,7.668,0,0,0,2.777-.467,3.843,3.843,0,0,0,1.8-1.285,2.989,2.989,0,0,0,.591-1.78,2.722,2.722,0,0,0-.568-1.709,4.214,4.214,0,0,0-1.874-1.227,36.515,36.515,0,0,0-3.7-1.012,18.809,18.809,0,0,1-4.015-1.3,5.6,5.6,0,0,1-2.219-1.934,4.742,4.742,0,0,1-.732-2.588,5.265,5.265,0,0,1,.9-2.944,5.521,5.521,0,0,1,2.608-2.078,9.917,9.917,0,0,1,3.818-.71,10.394,10.394,0,0,1,4.075.745,5.892,5.892,0,0,1,2.717,2.189,6.286,6.286,0,0,1,1.02,3.277l-2.639.2a4.233,4.233,0,0,0-1.439-2.977,5.6,5.6,0,0,0-3.623-1.01,5.812,5.812,0,0,0-3.638.917,2.742,2.742,0,0,0-1.141,2.207,2.349,2.349,0,0,0,.808,1.841q.8.727,4.151,1.485a27.283,27.283,0,0,1,4.6,1.326,6.286,6.286,0,0,1,2.681,2.121,5.166,5.166,0,0,1,.864,2.957,5.653,5.653,0,0,1-.949,3.128,6.281,6.281,0,0,1-2.729,2.285,9.525,9.525,0,0,1-4.007.813,11.932,11.932,0,0,1-4.732-.823,6.61,6.61,0,0,1-2.992-2.474A7.021,7.021,0,0,1,177.015,226.286Z" transform="translate(-110.679 -211.818)" fill="#8b3534"/>
      <path id="Path_4" data-name="Path 4" d="M189.616,232.749v-20.79h2.752v10.312L202.7,211.959h3.729l-8.724,8.423,9.108,12.367h-3.633l-7.4-10.524-3.4,3.32v7.2Z" transform="translate(-91.463 -211.603)" fill="#8b3534"/>
      <path id="Path_5" data-name="Path 5" d="M202.123,232.749v-20.79h2.752v20.79Z" transform="translate(-72.391 -211.603)" fill="#8b3534"/>
      <path id="Path_6" data-name="Path 6" d="M209.724,232.749v-20.79h2.823l10.923,16.324V211.959h2.636v20.79h-2.82l-10.923-16.336v16.336Z" transform="translate(-60.8 -211.603)" fill="#8b3534"/>
      <path id="Path_7" data-name="Path 7" d="M150.743,246.558V225.765H153.5V234.3H164.3v-8.537h2.752v20.793H164.3v-9.8H153.5v9.8Z" transform="translate(-150.743 -190.549)" fill="#babfbb"/>
      <path id="Path_8" data-name="Path 8" d="M163.643,246.558V225.765h15.036v2.452H166.393v6.37h11.5v2.439h-11.5V244.1h12.766v2.454Z" transform="translate(-131.071 -190.549)" fill="#babfbb"/>
      <path id="Path_9" data-name="Path 9" d="M174.992,246.558l7.984-20.793h2.967l8.509,20.793h-3.133l-2.426-6.3H180.2l-2.285,6.3Zm6-8.539h7.05l-2.169-5.757q-1-2.625-1.475-4.313a26.6,26.6,0,0,1-1.124,3.972Z" transform="translate(-113.764 -190.549)" fill="#babfbb"/>
      <path id="Path_10" data-name="Path 10" d="M188.127,246.558V225.765h2.752V244.1h10.239v2.454Z" transform="translate(-93.734 -190.549)" fill="#babfbb"/>
      <path id="Path_11" data-name="Path 11" d="M204.554,246.558V228.217H197.7v-2.452h16.483v2.452h-6.878v18.341Z" transform="translate(-79.134 -190.549)" fill="#babfbb"/>
      <path id="Path_12" data-name="Path 12" d="M209.981,246.558V225.765h2.752V234.3h10.812v-8.537h2.75v20.793h-2.75v-9.8H212.733v9.8Z" transform="translate(-60.408 -190.549)" fill="#babfbb"/>
    </g>
    <path id="Path_13" data-name="Path 13" d="M150.846,133.3V216q1.315-3.13,2.831-6.96V136.132h96.7v96.7H163.743c-.459,1-.928,1.933-1.4,2.831H253.2V133.3Z" transform="translate(31.118 38.559)" fill="#8b3534"/>
    <path id="Path_14" data-name="Path 14" d="M192.492,149.59s-30.148,97.19-45.552,81.827c0,0-6.518-4.473-1.532-9.1C145.408,222.319,166.466,202.827,192.492,149.59Z" transform="translate(27.022 47.677)" fill="#744636"/>
    <path id="Path_15" data-name="Path 15" d="M196.328,143.74s23.967,60.479,11.272,61.117c0,0-6.248.883-5.819-3.79C201.781,201.066,205.257,181.677,196.328,143.74Z" transform="translate(56.575 44.402)" fill="#f2dbc9"/>
    <path id="Path_16" data-name="Path 16" d="M194.083,146.638s-1.753,75.588-15.632,70.107c0,0-6.512-1.683-3.935-6.418C174.516,210.327,186.447,191.092,194.083,146.638Z" transform="translate(44.029 46.024)" fill="#bf7256"/>
  </g>
</svg>
