<svg xmlns="http://www.w3.org/2000/svg" width="56" height="56"><defs><radialGradient id="a" cx=".523" cy=".527" r=".735" gradientTransform="matrix(.285 -.959 .937 .278 -.119 .882)" gradientUnits="objectBoundingBox"><stop offset="0" stop-color="#fff"/><stop offset=".424" stop-color="#fff" stop-opacity="0"/><stop offset=".586" stop-color="#fff"/><stop offset=".744" stop-color="#fff" stop-opacity="0"/><stop offset="1" stop-color="#fff" stop-opacity="0"/></radialGradient></defs><g data-name="Group 222"><g data-name="Path 126" stroke-dasharray="3 3" opacity=".334" fill="url(#a)"><path d="M28 0A28 28 0 1 1 0 28 28 28 0 0 1 28 0Z"/><path d="M28 0h.168a11.372 11.372 0 0 0 .034 0h.023l.012.001h.086a3.04 3.04 0 0 0 .023.001H28.404l.012.001H28.474l.011.001.048.001h.049l.012.001h.034l.012.001h.023l.012.001h.034l.106.004H28.851l.01.001h.025l.011.001h.024c.565.02 1.125.054 1.68.105l.012.001h.001l.01.001h.002l.01.001h.001l.012.002h.012l.011.002h.011l.01.002h.002l.01.001h.001l.012.001.057.006h.012l.01.002.012.001.011.001.011.001.012.002h.01l.012.002h.011l.011.002.01.001.012.001.01.001.011.001.01.002h.011l.044.005-.212 1.99A26.428 26.428 0 0 0 28 2V0Zm5.955.635c.985.213 1.95.478 2.892.792l-.631 1.897c-.877-.292-1.78-.539-2.684-.735l.423-1.954Zm5.682 1.89.08.037.066.03.001.001.008.004h.002l.008.004.002.001.008.004.002.001.007.004.004.001.006.003.004.002.006.003.003.001.024.011.003.002.006.003.004.001.006.003.01.005.01.004.01.005.01.005a6.212 6.212 0 0 0 .026.012l.007.004c.003 0 .005.002.007.003l.01.005.01.005.004.001.007.004.004.001.006.004.004.001.007.003.003.002.007.003a2.05 2.05 0 0 0 .011.006h.002l.032.016.01.004.002.001.008.004.002.001.009.004.002.001.008.005h.002l.009.005h.001l.063.03v.001a7.1 7.1 0 0 1 .01.005h.001l.01.005.01.005h.001l.01.005.064.031.01.005.01.005h.001l.074.037.01.005.095.047.01.005c.158.079.314.16.47.24l.01.006.01.005.01.006c.002 0 0 0 0 0l.073.038c.001 0 0 0 0 0l.01.006h.001l.01.005.01.006c.021.01.042.022.062.033h.001l.01.005.01.005v.001l.01.005.01.006.052.027.01.006h.002l.008.005.002.001.008.005h.002l.01.006.01.005.04.023h.002l.009.005h.001l.009.005.002.001.008.005.002.001.008.004.002.002.008.004h.002l.03.018h.001l.009.005.002.001.008.004.003.002.007.004.003.001.006.004.004.002.007.004.003.001.007.004.003.002a4.982 4.982 0 0 1 .01.005l.008.005h.001l.02.012.003.001.007.004.003.002.007.004.004.002.006.003.003.002.006.003.004.003.006.003a2.137 2.137 0 0 1 .01.005l.004.003.006.003.004.002.008.005.004.002.007.004a1.025 1.025 0 0 0 .01.005l.01.006.01.005.009.006a5.135 5.135 0 0 1 .02.01l.004.003.01.006.01.005.001.001.015.008.003.002.006.003a1.744 1.744 0 0 1 .018.01c.003.003.007.005.01.006l.01.006.01.005.01.006.002.001c.008.005.015.01.023.013l.002.002.007.004.003.001.006.004.003.002.007.003.009.005.01.006.003.002.006.004.003.001.007.004.002.001.007.005h.001l.026.015h.001l.007.004.003.002.006.004.003.002a5.821 5.821 0 0 0 .01.005l.007.004.002.001.007.004.002.002.008.004h.001l.044.026.01.005a.277.277 0 0 1 .01.007l.008.004c.004.003.005.004.009.005l.001.001.008.005.01.005a29.373 29.373 0 0 1 .054.033l.009.005.009.005h.001l.072.043.009.005.01.006.045.027-1.022 1.719a26.021 26.021 0 0 0-2.466-1.293l.832-1.819Zm5.148 3.061c.314.236.623.479.928.727v.001l.008.006.008.007a.218.218 0 0 0 .009.007l.04.033.007.006.002.001.006.005.002.002.006.005.003.002.006.005.002.002.006.005.002.002.007.005.001.001.03.025.002.001.005.005.003.003.006.004.003.003.005.004.003.002.006.005.002.002.006.005.002.002a7.674 7.674 0 0 0 .031.026l.005.004.004.003.005.004.003.003.006.004.002.003.006.005c.001 0 .002 0 .002.002l.006.005.003.002.006.005a.586.586 0 0 1 .022.018l.003.002.005.005.003.002.005.005.003.003c.002 0 .004.003.006.004l.003.003.005.004.003.003a2.348 2.348 0 0 1 .009.007l.005.004.004.003c0 .002.003.003.004.004l.004.004.004.003.009.007.004.004.004.003.005.004.003.003.005.004.004.004.005.004.003.003a1.778 1.778 0 0 1 .009.007l.004.004.005.003.004.004.005.004.003.003.005.004.009.008.003.002.004.004.004.003.005.004.004.004.004.004c.002 0 .003.002.004.003l.005.004.004.003.004.004.004.004c.002 0 .003.002.004.003l.004.003.005.004.004.004.004.004.006.004.006.005.005.005.004.003.004.004.005.004.004.003.004.004.004.004c.002 0 .003.002.004.003l.005.004.004.003.004.004.004.004a4.013 4.013 0 0 0 .008.007l.006.004.003.003.008.007.004.003a2.46 2.46 0 0 1 .008.008l.005.004.004.003.004.004.004.004c.002 0 .003.002.005.003l.004.004.004.004.004.003.005.004.004.004.004.003.004.004.003.003.013.01v.001l.006.005.003.002.005.005.003.003.005.004a1.35 1.35 0 0 0 .012.01l.004.004.004.004.005.003.004.004.004.004.004.003.004.004a1.325 1.325 0 0 0 .022.02l.003.001.005.005.003.003.005.004.003.003.006.005.002.002.006.005.002.002.006.005.002.002.03.026.007.006.001.002.006.005.003.002.005.005.003.003.005.004a18.415 18.415 0 0 1 .017.015l.001.001.03.027.008.007.007.006.002.002.006.005.002.002.007.006.062.056.008.007.36.329-1.364 1.463a26.248 26.248 0 0 0-2.137-1.788l1.2-1.6Zm4.381 4.083a28.1 28.1 0 0 1 1.049 1.285l.006.008.007.008.006.009.007.008.03.041.002.001.005.007.001.002.005.006.002.003.005.006.002.002a9.06 9.06 0 0 1 .011.016l.002.002.005.006.001.002.01.013.002.002.004.005.002.004.004.005a1.788 1.788 0 0 1 .01.012c0 .002.002.004.004.006l.002.004c.002 0 .003.003.004.004l.003.004.004.005c0 .002.002.003.003.005l.003.004.004.005.003.004.007.009.007.009v.001c.003.003.005.005.006.008l.002.002.005.007a2.077 2.077 0 0 1 .007.009l.002.002.005.007.002.002.006.008v.001l.007.009.028.038.007.009.007.01.007.009c.18.242.356.486.528.733l-1.643 1.142a26.22 26.22 0 0 0-1.71-2.199l1.512-1.31Zm3.418 4.917.028.052.005.01.006.01.005.01.001.001.005.01.028.05v.002l.005.009.001.002.004.007.002.003.004.008a.48.48 0 0 1 .005.01l.002.002.004.008.001.002.004.009.001.001.017.03v.002l.005.008.001.003.004.007.002.003.003.007.002.003.004.007.001.003.004.007.002.003.004.008.001.002.004.008.001.002.01.02.002.003.004.007.002.003.003.007.002.004a9.877 9.877 0 0 0 .006.01l.003.006.002.004.003.006.002.004.003.006.002.004.004.006.002.004.003.006.002.004.005.01.001.002.004.007.002.004.003.006.003.005.002.005.003.005.003.005.002.005.003.005.003.005.002.004.003.006.002.004.003.006.002.004.003.005.003.006.002.004.005.01a2.893 2.893 0 0 0 .005.01l.003.005.002.005.003.005.002.004.003.006.002.004.003.006.002.004.004.006.001.003.004.007a1.902 1.902 0 0 1 .005.01l.001.002.004.007a27.925 27.925 0 0 1 .014.029l.004.007.002.003.003.007.002.003.003.006.002.004.003.006.002.003a5.695 5.695 0 0 1 .004.01l.004.007a1.223 1.223 0 0 0 .005.01l.019.037.005.009v.001l.004.008.001.002.004.008.001.002.004.008.001.001.004.008v.001l.005.01.028.055.001.001.004.009v.001l.005.008v.002l.005.008v.001l.005.009a27.109 27.109 0 0 1 .033.067l.004.008v.001l.048.095.102.21a27.747 27.747 0 0 1 .422.917l.004.01.004.01a9.268 9.268 0 0 1 .03.067v.001l.004.009v.001l.004.008v.003l.004.007.001.003.004.007v.003l.004.008v.001l.004.009a36.525 36.525 0 0 1 .017.04l.004.007v.002l.004.007.001.004.003.007.001.003.003.006.002.004.003.007.001.003.003.007.002.004.002.006.002.004.003.006v.002a20.137 20.137 0 0 1 .008.018l.002.006.003.005.002.005.002.005.002.005.002.005.002.005.003.006.002.005.002.005.002.005.003.006a3.935 3.935 0 0 0 .005.01v.005a5.38 5.38 0 0 1 .005.01l.005.01.001.004.003.007.001.003a3.796 3.796 0 0 1 .012.028l.002.005a3.774 3.774 0 0 1 .007.016l.002.004.002.007.002.003c0 .003.002.005.003.008l.001.003.009.021v.002l.004.008.002.003c0 .003.002.005.003.008l-1.848.766a25.978 25.978 0 0 0-1.202-2.51l1.755-.96Zm2.292 5.533a28.213 28.213 0 0 1 .047.164l.003.01.003.01v.001l.003.009v.002l.003.008v.003l.003.008v.003l.003.008v.002l.003.008a.848.848 0 0 0 .008.03v.002l.002.006.002.005a2.842 2.842 0 0 1 .003.01l.001.006.002.006.001.004.002.006.001.005.002.006.001.005.002.006.001.005a3.565 3.565 0 0 1 .003.01l.002.007.001.004.003.009v.002l.016.056c0 .004.002.007.003.01v.002l.003.01v.001l.003.01v.001l.003.01v.001l.003.01v.001l.003.011c.101.371.195.746.281 1.123l.003.011c0 .001 0 0 0 0l.02.092.003.011.003.011v.002l.002.01v.001l.003.01v.002l.002.01v.001l.003.01v.001l.002.01v.002l.01.045c.001.001 0 0 0 0l.003.011v.002l.003.01v.002l.002.009V22l.003.009v.003l.002.008v.003l.003.009v.002l.002.009v.002l.002.009v.003c.002.002.002.005.003.008v.003l.01.045v.004l.002.007.001.004.002.007v.004l.002.007.001.005.001.006.001.005.002.007v.004l.002.007.001.004.002.007v.004l.002.006v.006l.002.005.001.006.002.006v.005a29.825 29.825 0 0 1 .004.017l.001.005.002.006v.005l.002.006v.005l.002.006.001.005.001.006.001.005.002.006v.005l.002.006v.005l.002.006.001.005.001.006.001.005.002.006v.005l.002.006.001.006.001.005.001.005.005.025v.003l.002.007.001.004.002.007v.004a3.648 3.648 0 0 1 .003.011v.007l.002.005.001.006.001.004.001.007.001.004.002.008v.002l.002.009v.002l.002.009v.001l.013.062v.001l.002.01a2.01 2.01 0 0 1 .002.012l.002.009v.002l.002.009v.002l.002.009v.002l.002.009v.002l.003.009v.001l.012.064.004.02v.001l.002.01v.001l.002.01v.001l.002.01.002.01v.002l.002.01.018.096.002.01v.001l.002.01v.001l.002.01v.001l.002.01v.001l.018.096.002.01v.001l.002.01v.006l-1.968.352a25.92 25.92 0 0 0-.637-2.71l1.92-.561Zm1.055 5.895.003.046v.014l.001.002a22.903 22.903 0 0 1 .002.032v.011l.001.004v.013l.001.005v.008l.001.006v.008l.001.01v.008l.001.007v.006a4.625 4.625 0 0 1 .001.012l.001.015v.004l.001.01v.002l.002.03v.002a30.269 30.269 0 0 1 .045 1.052v.002l.001.043v.003a21.803 21.803 0 0 1 .002.075v.05l.001.028v.059l.001.007v.012a3.125 3.125 0 0 1 0 .013v.04l.001.006v.092l.001.013V27.908a16.233 16.233 0 0 1 0 .016v.016l.001.01v.032A1.438 1.438 0 0 1 56 28v.047a.975.975 0 0 1 0 .014V28.222l-.001.032a28.48 28.48 0 0 1-.017.759l-1.999-.071a26.605 26.605 0 0 0-.047-2.788l1.995-.14Zm-2.194 5.702 1.98.284a27.941 27.941 0 0 1-.258 1.504l-.002.01v.001l-.002.01v.001a6.714 6.714 0 0 1-.002.011l-.002.008v.004l-.002.007-.001.004-.001.007-.001.004-.002.007v.004l-.002.007v.005l-.002.006-.001.006-.001.005-.003.01v.002l-.002.01v.002l-.002.01v.002l-.002.008-.001.004-.002.007v.004l-.002.008v.003a6.25 6.25 0 0 0-.003.011l-.002.008v.003l-.002.009v.003l-.003.01-.002.01v.002c-.084.404-.177.806-.279 1.204l-1.938-.494c.228-.896.41-1.814.542-2.73Zm-1.374 5.386 1.873.7a27.844 27.844 0 0 1-1.2 2.748l-1.787-.897a25.94 25.94 0 0 0 1.114-2.551Zm-2.495 4.968 1.681 1.084-.138.212a15.9 15.9 0 0 0-.006.008v.001l-.006.008-.029.044-.004.007-.002.003-.004.006-.002.003a6.793 6.793 0 0 0-.006.01l-.004.005-.002.003-.004.006-.002.003-.004.006-.003.004a4.618 4.618 0 0 0-.003.006l-.004.004-.002.005a7.57 7.57 0 0 1-.006.009l-.002.002-.005.007-.001.003-.005.007-.002.002-.005.008-.001.002-.005.007-.001.002-.006.008v.002a28.619 28.619 0 0 1-.045.067h-.001a28.1 28.1 0 0 1-1.447 1.96l-1.556-1.257a26.19 26.19 0 0 0 1.632-2.257Zm-3.496 4.327 1.414 1.415a27.992 27.992 0 0 1-.181.18l-.007.006-.001.001-.006.006-.002.001a4.92 4.92 0 0 1-.006.007h-.001l-.007.007-.001.002-.006.006h-.001l-.022.021-.006.007-.002.001-.006.006-.002.002-.006.006-.001.001a4.347 4.347 0 0 1-.006.006l-.002.002-.006.006-.002.002-.006.005-.002.002-.006.006a23.902 23.902 0 0 1-.023.022l-.005.005-.003.003-.004.005-.004.003-.004.004a2.392 2.392 0 0 0-.012.011l-.004.004-.004.004-.004.004a3.684 3.684 0 0 0-.004.004l-.004.004a5.537 5.537 0 0 1-.01.01l-.006.005a3.841 3.841 0 0 1-.004.004l-.004.003-.004.004-.004.004a1.961 1.961 0 0 0-.008.008l-.004.004-.004.004a1.739 1.739 0 0 0-.008.008l-.004.003-.005.005-.003.003-.006.006-.002.001-.008.008-.001.002-.007.006-.002.002a8.463 8.463 0 0 1-.006.006l-.003.002-.005.005-.003.003-.005.005-.003.003-.005.005-.003.003a6.345 6.345 0 0 1-.009.008l-.005.005-.003.002-.007.007-.001.001-.008.008-.003.002a5.758 5.758 0 0 1-.009.009l-.004.004-.004.003-.004.005c-.002 0-.002.002-.004.003a5.558 5.558 0 0 0-.005.004c0 .002-.002.002-.003.004l-.004.004a3.005 3.005 0 0 1-.004.003l-.005.005-.003.003-.008.007-.008.008h-.001l-.007.008-.003.003a3.205 3.205 0 0 1-.006.005l-.003.002-.005.005-.003.003-.005.005-.003.003a2.796 2.796 0 0 1-.005.004l-.004.004a6.432 6.432 0 0 1-.005.005l-.002.002-.006.006c-.002 0-.002 0-.003.002l-.007.006-.001.002-.008.007-.003.003-.005.005-.003.002-.005.005-.004.003-.005.005-.003.003a2.83 2.83 0 0 0-.005.005l-.003.003-.006.005a1.476 1.476 0 0 0-.008.007c0 .002-.001.002-.003.003l-.005.005-.003.003-.005.005a9.311 9.311 0 0 1-.006.005l-.005.005a3.126 3.126 0 0 1-.004.003l-.004.004-.004.004-.004.004-.004.003-.004.004-.005.004-.004.004-.004.004-.004.003-.004.004-.004.004-.004.004-.003.003-.018.016-.003.003a2.026 2.026 0 0 1-.004.004l-.005.004a3.52 3.52 0 0 0-.004.003c0 .002-.002.003-.003.004l-.005.004-.004.004-.004.004-.004.003-.004.004-.004.004-.004.004c-.002 0-.003.002-.004.003a5.655 5.655 0 0 0-.005.004l-.003.003-.01.009-.002.003c-.002 0-.004.003-.005.004l-.004.003-.004.004-.004.004-.005.004-.003.003a2.407 2.407 0 0 1-.005.004l-.003.003-.005.005-.003.002-.005.005-.002.002-.007.006-.007.007h-.001a5.555 5.555 0 0 1-.022.02v.001l-.007.006-.002.002-.006.005-.002.002-.006.006-.002.001-.007.006v.001l-.008.006-.046.043-.016.014c-.374.335-.756.661-1.148.976L44.3 48.258c.72-.58 1.418-1.207 2.073-1.86Zm-4.332 3.49 1.082 1.682c-.445.286-.897.56-1.359.82a8.355 8.355 0 0 0-.008.005l-.002.001-.008.005h-.002l-.007.005-.002.001-.008.004-.002.002-.007.004h-.002a27.633 27.633 0 0 1-.036.02l-.006.004-.003.002-.006.003a7.517 7.517 0 0 1-.019.01l-.005.004-.005.002-.006.004-.003.002-.007.003-.003.002a49.72 49.72 0 0 1-.02.011l-.003.002a6.611 6.611 0 0 1-.007.004l-.003.001-.006.004-.004.002-.007.004-.002.001-.007.004-.003.002-.008.004-.002.001-.008.005h-.002c-.003.003-.006.004-.01.006l-.05.028h-.002l-.01.006-.01.006c-.308.17-.62.333-.935.49l-.896-1.788c.827-.414 1.64-.877 2.42-1.378Zm-4.97 2.488.697 1.874c-.255.095-.511.187-.77.274a36.89 36.89 0 0 0-.01.004h-.001l-.01.003h-.001l-.01.004h-.001l-.01.004h-.002l-.01.004-.01.003h-.001l-.033.012c-.004 0-.007.002-.01.003l-.011.004-.01.003-.012.004-.01.003-.01.004a11.404 11.404 0 0 0-.022.007l-.01.003-.024.008-.01.003-.01.004-.01.003a7.715 7.715 0 0 1-.01.004c-.005 0-.008.002-.012.003a.653.653 0 0 1-.01.004h-.002a8.715 8.715 0 0 1-.01.003l-.01.004a28.077 28.077 0 0 1-.082.026l-.01.003c-.49.159-.988.304-1.49.436l-.01.002a8.884 8.884 0 0 1-.012.003l-.01.003-.011.003-.012.003-.01.003-.011.002a24.582 24.582 0 0 1-.034.01l-.011.002a23.7 23.7 0 0 0-.011.003c-.004 0-.008.002-.011.003a6.381 6.381 0 0 1-.011.002l-.011.003-.011.003-.01.003-.01.002h-.002l-.01.003-.492-1.938c.896-.228 1.79-.506 2.656-.829Zm-5.388 1.367.28 1.98c-.47.066-.942.121-1.42.164l-.01.001-.011.001-.01.001-.012.001-.011.001-.012.001-.01.001-.012.001h-.011v.001l-.065.005-.01.001-.01.001-.012.001a10.267 10.267 0 0 0-.022.002h-.011l-.012.002h-.011l-.011.002h-.012l-.01.001-.012.001-.012.001-.01.001-.012.001a11.008 11.008 0 0 1-.035.003h-.013l-.01.001h-.002l-.012.002h-.012l-.012.001-.012.001-.011.001h-.012l-.011.002h-.012l-.011.001-.012.001-.011.001h-.012c-.023.003-.046.004-.07.006h-.012l-.013.001-.012.001-.011.001h-.012l-.012.002h-.011l-.012.001h-.011l-.012.002H29.802l-.002.001h-.011l-.012.002-.05.003h-.011l-.012.001h-.012a15.045 15.045 0 0 1-.023.002h-.012l-.012.001-.011.001h-.012l-.011.001-.012.001h-.011l-.012.001-.012.001h-.011l-.033.002h-.009l-.01.001a9.952 9.952 0 0 1-.024.002h-.023l-.011.001-.011.001h-.012l-.012.001h-.011l-.012.001h-.011c-.133.007-.266.013-.399.017l-.068-1.998a26.272 26.272 0 0 0 2.775-.243Zm-8.326-.155c.908.163 1.838.28 2.763.346l-.143 1.995a28.15 28.15 0 0 1-.951-.084l-.012-.001h-.001L25 55.84l-.012-.001-.011-.001-.01-.001h-.002l-.012-.002-.012-.001-.01-.001-.012-.002h-.012l-.011-.002-.012-.001-.027-.003-.012-.002-.01-.001-.013-.001-.011-.002h-.012l-.01-.002-.013-.002h-.01l-.013-.002-.01-.001-.012-.002-.012-.001-.011-.001a27.868 27.868 0 0 1-.054-.007l-.01-.001-.01-.001-.012-.002-.01-.001-.012-.001-.012-.002-.011-.001-.011-.002h-.012l-.01-.002a27.786 27.786 0 0 1-.11-.014l-.01-.001-.012-.002c-.474-.06-.945-.133-1.411-.217l.355-1.968Zm-5.332-1.57c.854.356 1.737.668 2.623.93l-.564 1.918a27.788 27.788 0 0 1-2.827-1l.768-1.847Zm-4.875-2.673c.76.53 1.556 1.024 2.366 1.468l-.962 1.754a27.235 27.235 0 0 1-.04-.022l-.005-.003a4.282 4.282 0 0 1-.02-.01l-.009-.006a7.695 7.695 0 0 1-.01-.005l-.006-.004-.003-.002-.009-.005-.031-.017-.01-.006h-.001a21.676 21.676 0 0 0-.01-.005l-.01-.006a28.015 28.015 0 0 1-2.384-1.49l1.144-1.64ZM8.95 45.695c.63.678 1.304 1.33 2.003 1.937l-1.312 1.51a28.174 28.174 0 0 1-2.04-1.96v-.001l-.04-.044-.003-.002a7.927 7.927 0 0 0-.005-.006l-.002-.002-.005-.006-.003-.002c0-.002-.003-.004-.004-.005a1.117 1.117 0 0 0-.003-.003l-.005-.005-.003-.004a4.06 4.06 0 0 1-.004-.004l-.004-.004-.004-.004a7.675 7.675 0 0 1-.005-.006l-.002-.002-.016-.017-.001-.001-.006-.007 1.464-1.362ZM5.62 41.241c.471.795.992 1.574 1.546 2.315l-1.601 1.198-.167-.225-.007-.01-.007-.009-.007-.01-.02-.027-.002-.003-.005-.006c0-.002-.002-.003-.003-.004a4.533 4.533 0 0 0-.006-.01l-.004-.004a3.892 3.892 0 0 0-.003-.005l-.003-.004-.004-.005-.002-.003-.004-.006-.002-.002a28.988 28.988 0 0 1-.035-.049l-.006-.009h-.001a5.927 5.927 0 0 1-.006-.009 28.045 28.045 0 0 1-1.371-2.093l1.72-1.02Zm-2.306-5.058c.29.877.633 1.749 1.017 2.59l-1.82.83a27.82 27.82 0 0 1-.462-1.073 8.154 8.154 0 0 1-.005-.01v-.001l-.004-.01a27.244 27.244 0 0 1-.026-.065l-.001-.002-.004-.009v-.002l-.004-.008-.001-.003L2 38.413 2 38.409l-.003-.007a1.736 1.736 0 0 0-.004-.01l-.002-.005-.002-.006-.002-.004-.003-.007-.001-.003-.003-.007-.003-.009-.002-.005-.003-.006-.001-.004-.003-.007-.002-.003-.002-.007-.002-.004-.002-.006-.002-.004-.002-.007-.002-.003-.002-.007a2.098 2.098 0 0 1-.005-.01v-.003l-.004-.008v-.002a21.073 21.073 0 0 1-.03-.078H1.91a27.823 27.823 0 0 1-.496-1.375l1.898-.63Zm-1.17-5.435c.097.922.245 1.847.439 2.75l-1.955.42a27.961 27.961 0 0 1-.08-.382l-.002-.01-.002-.01v-.002l-.002-.01-.002-.01-.021-.107-.002-.011-.002-.01v-.002a9.31 9.31 0 0 1-.003-.01l-.002-.01v-.001l-.002-.01a27.937 27.937 0 0 1-.353-2.376l1.99-.209Zm-1.98-5.78 1.988.214c-.099.917-.15 1.854-.151 2.783l-2-.003c0-.607.02-1.208.06-1.805v-.011l.001-.01v-.012l.002-.011a29.7 29.7 0 0 1 .006-.088V26.012l.001-.007v-.012l.001-.004v-.011l.001-.006v-.006l.001-.005v-.006l.001-.006v-.011l.001-.007v-.004l.001-.007v-.004l.001-.008v-.011l.001-.004v-.011l.002-.01v-.013c.023-.298.05-.596.082-.891Zm1.275-5.851 1.897.634c-.293.877-.541 1.78-.738 2.683l-1.954-.426c.026-.12.052-.238.08-.356v-.001l.002-.01v-.002l.003-.01v-.002l.003-.009v-.002l.002-.01v-.001l.003-.01v-.001l.003-.01v-.002l.005-.022v-.003l.003-.008v-.005l.002-.006.002-.005.001-.006.001-.005.002-.006v-.005l.002-.006.002-.006v-.005l.002-.006.001-.004.002-.007v-.004l.002-.007.001-.003.015-.06v-.001l.002-.01.003-.01a.14.14 0 0 1 .002-.011l.003-.011.003-.01v-.001c.184-.757.399-1.5.643-2.232Zm2.5-5.442 1.717 1.024c-.475.795-.91 1.624-1.296 2.464l-1.818-.835v-.001l.005-.008v-.002l.004-.009.001-.002.004-.009.001-.001.004-.01.02-.043.005-.01v-.001l.005-.01v-.001l.005-.01.005-.01V16.2l.005-.01.025-.053v-.001l.005-.01v-.001l.005-.009v-.002l.005-.009v-.001a9.53 9.53 0 0 1 .005-.01l.005-.01.02-.043.005-.01v-.002l.005-.009v-.001l.005-.01a9.07 9.07 0 0 1 .005-.01v-.001l.005-.01.02-.043.006-.01v-.001l.004-.01.001-.001.004-.009.001-.002.004-.008.001-.002.005-.01.005-.01.02-.042v-.001l.005-.01.001-.001.004-.009a1.564 1.564 0 0 0 .005-.01l.001-.002.004-.009.001-.002.005-.009.005-.011.01-.021.005-.01.001-.002.004-.008.002-.003.003-.008.002-.002a.614.614 0 0 0 .005-.01c0-.003.002-.006.004-.009v-.002l.004-.008.002-.002.004-.009v-.001c.004-.007.008-.014.01-.021h.001l.005-.01.001-.003.004-.007.001-.003.004-.007.001-.004.004-.006c0-.002 0-.003.002-.004a4.968 4.968 0 0 1 .005-.01c0-.003.002-.005.003-.007l.002-.003c0-.003.002-.005.003-.008l.002-.002.004-.01.006-.01v-.001l.005-.01v-.001l.005-.009a1.142 1.142 0 0 0 .007-.014l.003-.006.002-.004.003-.006.002-.004.003-.006.002-.004.003-.006.002-.004.003-.006.002-.004.004-.008v-.002l.006-.01.002-.004.003-.007.002-.003.003-.007.002-.003.003-.007.002-.004.003-.006.002-.004.003-.006.002-.004.003-.006.002-.004.003-.006.002-.004.004-.007.002-.003.005-.01v-.002l.005-.008.002-.004a4.135 4.135 0 0 0 .005-.01l.003-.006.002-.004.003-.006.002-.004.003-.005.002-.006.003-.005.002-.004.003-.006.002-.004.004-.007.001-.003.004-.007.003-.006.004-.007.001-.003.004-.007.001-.004a5.526 5.526 0 0 1 .011-.02l.003-.006.002-.004.003-.006.003-.004.002-.006.003-.004.003-.006.002-.004.004-.008v-.002c.003-.003.004-.007.006-.01l.002-.004.003-.006c0-.002.002-.003.003-.005l.002-.005.003-.005.002-.005.003-.005.002-.005.003-.005.003-.005.002-.004.003-.006.002-.004.003-.006.002-.004.003-.006.003-.004.002-.005.006-.012.002-.002c0-.003.001-.004.003-.006l.002-.004.003-.006.002-.004.003-.006.002-.004.003-.006.002-.004a4.226 4.226 0 0 1 .005-.01l.003-.005.002-.004.004-.006.001-.004.004-.006.001-.003.012-.023.002-.003.003-.005a2.834 2.834 0 0 0 .005-.01l.002-.005.003-.005c0-.002.002-.003.003-.005l.002-.005.003-.005.003-.005.002-.004.003-.006.002-.004.003-.006.002-.003a26.667 26.667 0 0 1 .013-.025l.003-.006.003-.004c0-.003.001-.003.003-.006l.002-.004c0-.002.002-.004.003-.005l.002-.005.003-.005.002-.005.003-.005.002-.004.003-.006.003-.005.003-.004.002-.006.003-.005.002-.004.006-.01.002-.005.003-.005a3.205 3.205 0 0 1 .005-.01l.003-.004.002-.005.003-.005.003-.005a6.065 6.065 0 0 1 .005-.01c0-.002.002-.003.003-.005l.002-.005a7.87 7.87 0 0 0 .003-.005l.003-.004.003-.006.002-.004.004-.008.001-.002.005-.01.002-.003.004-.007c0-.001 0-.002.002-.003a5.539 5.539 0 0 1 .009-.016c0-.002 0-.003.002-.005 0-.002.002-.003.003-.005l.002-.004.003-.006.002-.004a4.7 4.7 0 0 0 .006-.01l.003-.006.002-.004.004-.007.002-.003.005-.01.005-.01.002-.002.004-.007.002-.004.003-.006.002-.004.004-.006.002-.004.003-.006.002-.004.003-.006.002-.004.004-.006.002-.003.004-.009.001-.001.011-.02.001-.002.005-.008v-.002l.005-.008.002-.003.004-.007.001-.003.004-.007.002-.003.004-.007.001-.002.004-.008.002-.002.004-.009.001-.001.006-.01.011-.02v-.001l.006-.01.005-.01.001-.001.005-.009.005-.01.001-.001.005-.009.001-.001.005-.01.029-.05v-.001l.006-.01.005-.01.006-.01c.108-.19.217-.38.33-.566Zm3.599-4.787 1.461 1.366a26.248 26.248 0 0 0-1.79 2.134l-1.599-1.203c.602-.8 1.245-1.566 1.928-2.297Zm4.53-3.916 1.14 1.644c-.76.527-1.501 1.1-2.202 1.706L9.698 6.81c.354-.306.716-.603 1.085-.892l.01-.007.008-.007.037-.029h.001l.009-.007v-.001a9.23 9.23 0 0 1 .008-.006l.003-.002.006-.005.003-.002a6.41 6.41 0 0 1 .006-.004l.003-.003.006-.004.003-.003.006-.004.003-.003.007-.005.002-.001.009-.007.001-.002.007-.005.004-.003.005-.004.004-.003a4.29 4.29 0 0 1 .005-.004l.004-.002.005-.004a3.413 3.413 0 0 0 .009-.007l.004-.003.004-.004.005-.003.005-.004.003-.003.006-.004.007-.006c.002 0 .003-.002.005-.003L11 5.749l.003-.003.006-.004.003-.003.006-.004.003-.002.005-.004.004-.003.005-.004.003-.002.006-.005.003-.002.006-.004.002-.002.031-.024.008-.005a.376.376 0 0 1 .01-.009l.007-.004.002-.002.007-.005v-.001a12.847 12.847 0 0 1 .059-.044l.017-.013c.286-.214.576-.424.87-.628Zm5.259-2.865.763 1.848c-.854.353-1.7.756-2.512 1.2l-.957-1.757.008-.004.004-.003a4.298 4.298 0 0 0 .017-.009l.002-.001.008-.005h.002a27.875 27.875 0 0 1 2.665-1.27Zm5.75-1.675.349 1.969c-.912.162-1.823.375-2.71.633l-.56-1.92.007-.002.01-.003a4.066 4.066 0 0 0 .069-.02l.01-.003.01-.003.011-.003.01-.003a27.803 27.803 0 0 1 2.15-.523l.011-.003.083-.016.01-.002.01-.002.011-.002.011-.002a5.082 5.082 0 0 1 .022-.005l.011-.002.011-.002.011-.002.058-.011.011-.003.012-.002c.124-.024.247-.046.371-.068ZM28 0v2c-.603 0-1.213.02-1.811.062L26.05.067c.17-.012.338-.022.508-.03l.044-.003.045-.002.033-.002h.012l.033-.002h.011l.033-.001.013-.001.032-.001h.012l.022-.002h.024a31.005 31.005 0 0 1 .044-.002l.02-.001h.013l.032-.002h.013l.02-.001h.025l.019-.001h.013l.013-.001h.018l.014-.001h.013l.019-.001h.013l.014-.001h.018a3.279 3.279 0 0 1 .059-.002h.016l.015-.001h.031l.015-.001h.031l.015-.001h.031l.014-.001h.031l.014-.001h.046l.015-.001h.047l.015-.001h.031a9.81 9.81 0 0 1 .028 0l.018-.001h.074L27.758 0h.105a8.574 8.574 0 0 0 .046 0h.032L27.954 0H28Z" fill="#000"/></g><text transform="translate(28 33)" stroke="#000" font-size="14" font-family="SegoeUI, Segoe UI" letter-spacing=".04em"><tspan x="-4.908" y="0">D</tspan></text></g></svg>