<svg xmlns="http://www.w3.org/2000/svg" width="90" height="38" viewBox="0 0 90 38">
  <g id="Group_1" data-name="Group 1" transform="translate(-3 -16)">
    <path id="Icon_awesome-play" data-name="Icon awesome-play" d="M18.947,9.586,3.232.3A2.131,2.131,0,0,0,0,2.139V20.716a2.141,2.141,0,0,0,3.232,1.844l15.715-9.286A2.141,2.141,0,0,0,18.947,9.586Z" transform="translate(13 23.998)" fill="rgba(0,0,0,0.3)"/>
    <text id="PLAY" transform="translate(39 41)" fill="rgba(0,0,0,0.3)" font-size="16" font-family="AppleSDGothicNeoBold, Apple SD Gothic Neo"><tspan x="0" y="0">PLAY</tspan></text>
    <g id="Path_1" data-name="Path 1" transform="translate(3 16)" fill="none">
      <path d="M18,0H72A18,18,0,0,1,90,18v2A18,18,0,0,1,72,38H18A18,18,0,0,1,0,20V18A18,18,0,0,1,18,0Z" stroke="none"/>
      <path d="M 18 2 C 13.72624969482422 2 9.708290100097656 3.664295196533203 6.686294555664062 6.68629264831543 C 3.664291381835938 9.708293914794922 2 13.72625350952148 2 18 L 2 20 C 2 24.27374649047852 3.664291381835938 28.29170608520508 6.686294555664062 31.31370735168457 C 9.708290100097656 34.33570861816406 13.72624969482422 36 18 36 L 72 36 C 76.27374267578125 36 80.29170989990234 34.33570861816406 83.31370544433594 31.31370735168457 C 86.33570861816406 28.29170608520508 88 24.27374649047852 88 20 L 88 18 C 88 13.72625350952148 86.33570861816406 9.708293914794922 83.31370544433594 6.68629264831543 C 80.29170989990234 3.664295196533203 76.27374267578125 2 72 2 L 18 2 M 18 0 L 72 0 C 81.94111633300781 0 90 8.058879852294922 90 18 L 90 20 C 90 29.94112014770508 81.94111633300781 38 72 38 L 18 38 C 8.058883666992188 38 0 29.94112014770508 0 20 L 0 18 C 0 8.058879852294922 8.058883666992188 0 18 0 Z" stroke="none" fill="rgba(0,0,0,0.3)"/>
    </g>
  </g>
</svg>
