<svg xmlns="http://www.w3.org/2000/svg" width="158.032" height="20.937" viewBox="0 0 158.032 20.937">
  <g id="Group_230" data-name="Group 230" transform="translate(-131 -121)">
    <g id="Group_175" data-name="Group 175" transform="translate(-1061 -1656)">
      <g id="Group_173" data-name="Group 173" transform="translate(1106.445 1605.14)">
        <g id="Group_1" data-name="Group 1" transform="translate(187.117 172.616)">
          <path id="Path_1" data-name="Path 1" d="M150.89,219.036v-7.077h1.41l1.675,5.011q.232.7.339,1.048c.081-.257.205-.634.377-1.135l1.694-4.924h1.26v7.077h-.9v-5.924l-2.056,5.924h-.846l-2.047-6.024v6.024Z" transform="translate(-150.764 -211.838)" fill="#babfbb"/>
          <path id="Path_2" data-name="Path 2" d="M166.984,219.036v-3l-2.728-4.079h1.139l1.4,2.133q.385.6.719,1.2.318-.554.772-1.251l1.372-2.08h1.092l-2.824,4.079v3Z" transform="translate(-152.641 -211.838)" fill="#babfbb"/>
          <path id="Path_3" data-name="Path 3" d="M177.015,216.743l.884-.077a1.96,1.96,0,0,0,.292.872,1.6,1.6,0,0,0,.712.549,2.7,2.7,0,0,0,1.087.211,2.61,2.61,0,0,0,.945-.159,1.308,1.308,0,0,0,.611-.438,1.017,1.017,0,0,0,.2-.606.927.927,0,0,0-.193-.582,1.434,1.434,0,0,0-.638-.418,12.43,12.43,0,0,0-1.26-.345,6.4,6.4,0,0,1-1.367-.443,1.905,1.905,0,0,1-.756-.658,1.614,1.614,0,0,1-.249-.881,1.792,1.792,0,0,1,.305-1,1.879,1.879,0,0,1,.888-.707,3.375,3.375,0,0,1,1.3-.242,3.538,3.538,0,0,1,1.387.254,2.006,2.006,0,0,1,.925.745,2.14,2.14,0,0,1,.347,1.116l-.9.068a1.441,1.441,0,0,0-.49-1.013,1.9,1.9,0,0,0-1.233-.344,1.978,1.978,0,0,0-1.239.312.933.933,0,0,0-.389.751.8.8,0,0,0,.275.627,3.725,3.725,0,0,0,1.413.505,9.29,9.29,0,0,1,1.566.451,2.14,2.14,0,0,1,.913.722,1.758,1.758,0,0,1,.294,1.006,1.924,1.924,0,0,1-.323,1.065,2.138,2.138,0,0,1-.929.778,3.242,3.242,0,0,1-1.364.277,4.062,4.062,0,0,1-1.611-.28,2.25,2.25,0,0,1-1.019-.842A2.39,2.39,0,0,1,177.015,216.743Z" transform="translate(-154.434 -211.818)" fill="#8b3534"/>
          <path id="Path_4" data-name="Path 4" d="M189.616,219.036v-7.077h.937v3.51l3.515-3.51h1.269l-2.97,2.867,3.1,4.21h-1.237l-2.52-3.582-1.159,1.13v2.452Z" transform="translate(-156.204 -211.838)" fill="#8b3534"/>
          <path id="Path_5" data-name="Path 5" d="M202.123,219.036v-7.077h.937v7.077Z" transform="translate(-157.961 -211.838)" fill="#8b3534"/>
          <path id="Path_6" data-name="Path 6" d="M209.724,219.036v-7.077h.961l3.718,5.557v-5.557h.9v7.077h-.96l-3.718-5.561v5.561Z" transform="translate(-159.029 -211.838)" fill="#8b3534"/>
          <path id="Path_7" data-name="Path 7" d="M150.743,232.843v-7.078h.937v2.906h3.68v-2.906h.937v7.078h-.937v-3.337h-3.68v3.337Z" transform="translate(-150.743 -213.777)" fill="#babfbb"/>
          <path id="Path_8" data-name="Path 8" d="M163.643,232.843v-7.078h5.118v.835h-4.182v2.169h3.916v.83h-3.916v2.409h4.346v.835Z" transform="translate(-152.555 -213.777)" fill="#babfbb"/>
          <path id="Path_9" data-name="Path 9" d="M174.992,232.843l2.718-7.078h1.01l2.9,7.078H180.55l-.826-2.144h-2.959l-.778,2.144Zm2.042-2.907h2.4l-.738-1.96q-.339-.893-.5-1.468a9.061,9.061,0,0,1-.382,1.352Z" transform="translate(-154.15 -213.777)" fill="#babfbb"/>
          <path id="Path_10" data-name="Path 10" d="M188.127,232.843v-7.078h.937v6.243h3.485v.835Z" transform="translate(-155.995 -213.777)" fill="#babfbb"/>
          <path id="Path_11" data-name="Path 11" d="M200.034,232.843V226.6H197.7v-.835h5.611v.835h-2.341v6.243Z" transform="translate(-157.34 -213.777)" fill="#babfbb"/>
          <path id="Path_12" data-name="Path 12" d="M209.981,232.843v-7.078h.937v2.906h3.68v-2.906h.936v7.078H214.6v-3.337h-3.68v3.337Z" transform="translate(-159.065 -213.777)" fill="#babfbb"/>
        </g>
        <path id="Path_13" data-name="Path 13" d="M150.846,133.3v15.9q.253-.6.544-1.338V133.845h18.594v18.594H153.326c-.088.191-.178.372-.27.544h17.472V133.3Z" transform="translate(9.234 38.559)" fill="#8b3534"/>
        <path id="Path_14" data-name="Path 14" d="M152.945,149.59s-5.8,18.689-8.759,15.735c0,0-1.253-.86-.295-1.749C143.891,163.575,147.94,159.827,152.945,149.59Z" transform="translate(14.356 27.156)" fill="#744636"/>
        <path id="Path_15" data-name="Path 15" d="M196.328,143.74s4.609,11.63,2.168,11.752c0,0-1.2.17-1.119-.729C197.377,154.763,198.045,151.035,196.328,143.74Z" transform="translate(-22.607 31.251)" fill="#f2dbc9"/>
        <path id="Path_16" data-name="Path 16" d="M177.792,146.638s-.337,14.535-3.006,13.481c0,0-1.252-.324-.757-1.234C174.029,158.885,176.323,155.186,177.792,146.638Z" transform="translate(-6.915 29.222)" fill="#bf7256"/>
      </g>
      <text id="Powered_by" data-name="Powered by" transform="translate(1192 1791)" font-size="12" font-family="SegoeUI-Light, Segoe UI" font-weight="300" letter-spacing="0.04em"><tspan x="0" y="0">Powered by</tspan></text>
    </g>
  </g>
</svg>
