<svg xmlns="http://www.w3.org/2000/svg" width="107" height="18" viewBox="0 0 107 18">
  <g id="Group_51" data-name="Group 51" transform="translate(-628 -1162)">
    <g id="Polygon_16" data-name="Polygon 16" transform="translate(628 1162)" fill="#f29e00">
      <path d="M 14.75068187713623 17.14759254455566 L 9.716320037841797 14.73176956176758 L 9.5 14.62796020507812 L 9.283679962158203 14.73176956176758 L 4.24931812286377 17.14759254455566 L 4.999750137329102 11.63449954986572 L 5.032340049743652 11.39507961273193 L 4.864999771118164 11.22078037261963 L 1.006404042243958 7.2016921043396 L 6.50137996673584 6.209099769592285 L 6.73813009262085 6.166329860687256 L 6.852439880371094 5.954649925231934 L 9.5 1.052217841148376 L 12.14756011962891 5.954649925231934 L 12.26187038421631 6.166329860687256 L 12.49862003326416 6.209099769592285 L 17.99359512329102 7.2016921043396 L 14.13500022888184 11.22078037261963 L 13.96765995025635 11.39507961273193 L 14.0002498626709 11.63449954986572 L 14.75068187713623 17.14759254455566 Z" stroke="none"/>
      <path d="M 9.5 2.104454040527344 L 7.063750267028809 6.615599632263184 L 2.012800216674805 7.527985572814941 L 5.560359954833984 11.22310066223145 L 4.869955062866211 16.29517936706543 L 9.5 14.0733699798584 L 14.13004493713379 16.29517936706543 L 13.43964004516602 11.22310066223145 L 16.9871997833252 7.527985572814941 L 11.93625068664551 6.615599632263184 L 9.5 2.104454040527344 M 9.5 0 L 12.58749961853027 5.717060089111328 L 19 6.87539005279541 L 14.49567985534668 11.56706047058105 L 15.37131977081299 18 L 9.5 15.18255043029785 L 3.628680229187012 18 L 4.50432014465332 11.56706047058105 L 0 6.87539005279541 L 6.412500381469727 5.717060089111328 L 9.5 0 Z" stroke="none" fill="#ce8600"/>
    </g>
    <path id="Polygon_17" data-name="Polygon 17" d="M9.5,0l3.088,5.717L19,6.875l-4.5,4.692L15.371,18,9.5,15.183,3.629,18,4.5,11.567,0,6.875,6.412,5.717Z" transform="translate(650 1162)" fill="#f29e00"/>
    <g id="Polygon_18" data-name="Polygon 18" transform="translate(672 1162)" fill="#f29e00">
      <path d="M 14.75068187713623 17.14759254455566 L 9.716320037841797 14.73176956176758 L 9.5 14.62796020507812 L 9.283679962158203 14.73176956176758 L 4.24931812286377 17.14759254455566 L 4.999750137329102 11.63449954986572 L 5.032340049743652 11.39507961273193 L 4.864999771118164 11.22078037261963 L 1.006404042243958 7.2016921043396 L 6.50137996673584 6.209099769592285 L 6.73813009262085 6.166329860687256 L 6.852439880371094 5.954649925231934 L 9.5 1.052217841148376 L 12.14756011962891 5.954649925231934 L 12.26187038421631 6.166329860687256 L 12.49862003326416 6.209099769592285 L 17.99359512329102 7.2016921043396 L 14.13500022888184 11.22078037261963 L 13.96765995025635 11.39507961273193 L 14.0002498626709 11.63449954986572 L 14.75068187713623 17.14759254455566 Z" stroke="none"/>
      <path d="M 9.5 2.104454040527344 L 7.063750267028809 6.615599632263184 L 2.012800216674805 7.527985572814941 L 5.560359954833984 11.22310066223145 L 4.869955062866211 16.29517936706543 L 9.5 14.0733699798584 L 14.13004493713379 16.29517936706543 L 13.43964004516602 11.22310066223145 L 16.9871997833252 7.527985572814941 L 11.93625068664551 6.615599632263184 L 9.5 2.104454040527344 M 9.5 0 L 12.58749961853027 5.717060089111328 L 19 6.87539005279541 L 14.49567985534668 11.56706047058105 L 15.37131977081299 18 L 9.5 15.18255043029785 L 3.628680229187012 18 L 4.50432014465332 11.56706047058105 L 0 6.87539005279541 L 6.412500381469727 5.717060089111328 L 9.5 0 Z" stroke="none" fill="#ce8600"/>
    </g>
    <g id="Polygon_19" data-name="Polygon 19" transform="translate(694 1162)" fill="#f29e00">
      <path d="M 14.75068187713623 17.14759254455566 L 9.716320037841797 14.73176956176758 L 9.5 14.62796020507812 L 9.283679962158203 14.73176956176758 L 4.24931812286377 17.14759254455566 L 4.999750137329102 11.63449954986572 L 5.032340049743652 11.39507961273193 L 4.864999771118164 11.22078037261963 L 1.006404042243958 7.2016921043396 L 6.50137996673584 6.209099769592285 L 6.73813009262085 6.166329860687256 L 6.852439880371094 5.954649925231934 L 9.5 1.052217841148376 L 12.14756011962891 5.954649925231934 L 12.26187038421631 6.166329860687256 L 12.49862003326416 6.209099769592285 L 17.99359512329102 7.2016921043396 L 14.13500022888184 11.22078037261963 L 13.96765995025635 11.39507961273193 L 14.0002498626709 11.63449954986572 L 14.75068187713623 17.14759254455566 Z" stroke="none"/>
      <path d="M 9.5 2.104454040527344 L 7.063750267028809 6.615599632263184 L 2.012800216674805 7.527985572814941 L 5.560359954833984 11.22310066223145 L 4.869955062866211 16.29517936706543 L 9.5 14.0733699798584 L 14.13004493713379 16.29517936706543 L 13.43964004516602 11.22310066223145 L 16.9871997833252 7.527985572814941 L 11.93625068664551 6.615599632263184 L 9.5 2.104454040527344 M 9.5 0 L 12.58749961853027 5.717060089111328 L 19 6.87539005279541 L 14.49567985534668 11.56706047058105 L 15.37131977081299 18 L 9.5 15.18255043029785 L 3.628680229187012 18 L 4.50432014465332 11.56706047058105 L 0 6.87539005279541 L 6.412500381469727 5.717060089111328 L 9.5 0 Z" stroke="none" fill="#ce8600"/>
    </g>
    <g id="Polygon_20" data-name="Polygon 20" transform="translate(716 1162)" fill="#f29e00">
      <path d="M 14.75068187713623 17.14759254455566 L 9.716320037841797 14.73176956176758 L 9.5 14.62796020507812 L 9.283679962158203 14.73176956176758 L 4.24931812286377 17.14759254455566 L 4.999750137329102 11.63449954986572 L 5.032340049743652 11.39507961273193 L 4.864999771118164 11.22078037261963 L 1.006404042243958 7.2016921043396 L 6.50137996673584 6.209099769592285 L 6.73813009262085 6.166329860687256 L 6.852439880371094 5.954649925231934 L 9.5 1.052217841148376 L 12.14756011962891 5.954649925231934 L 12.26187038421631 6.166329860687256 L 12.49862003326416 6.209099769592285 L 17.99359512329102 7.2016921043396 L 14.13500022888184 11.22078037261963 L 13.96765995025635 11.39507961273193 L 14.0002498626709 11.63449954986572 L 14.75068187713623 17.14759254455566 Z" stroke="none"/>
      <path d="M 9.5 2.104454040527344 L 7.063750267028809 6.615599632263184 L 2.012800216674805 7.527985572814941 L 5.560359954833984 11.22310066223145 L 4.869955062866211 16.29517936706543 L 9.5 14.0733699798584 L 14.13004493713379 16.29517936706543 L 13.43964004516602 11.22310066223145 L 16.9871997833252 7.527985572814941 L 11.93625068664551 6.615599632263184 L 9.5 2.104454040527344 M 9.5 0 L 12.58749961853027 5.717060089111328 L 19 6.87539005279541 L 14.49567985534668 11.56706047058105 L 15.37131977081299 18 L 9.5 15.18255043029785 L 3.628680229187012 18 L 4.50432014465332 11.56706047058105 L 0 6.87539005279541 L 6.412500381469727 5.717060089111328 L 9.5 0 Z" stroke="none" fill="#ce8600"/>
    </g>
  </g>
</svg>
