<svg xmlns="http://www.w3.org/2000/svg" width="24" height="24"><defs><radialGradient id="a" cx=".523" cy=".527" r=".735" gradientTransform="matrix(.285 -.959 .937 .278 -.119 .882)" gradientUnits="objectBoundingBox"><stop offset="0" stop-color="#fff"/><stop offset=".424" stop-color="#fff" stop-opacity="0"/><stop offset=".586" stop-color="#fff"/><stop offset=".744" stop-color="#fff" stop-opacity="0"/><stop offset="1" stop-color="#fff" stop-opacity="0"/></radialGradient></defs><g data-name="Group 223" style="isolation:isolate"><g data-name="Path 129" stroke-dasharray="3 3" opacity=".334" fill="url(#a)"><path d="M12 0A12 12 0 1 1 0 12 12 12 0 0 1 12 0Z"/><path d="M12 0h.146l.01.001H12.213l.01.001h.038l.01.001h.039l.01.001H12.338l.01.001h.02l.018.001h.01l.02.001h.019l.01.001h.019l.009.001h.01l.01.001H12.511l.01.001h.01l.01.001H12.56l.01.001.02.001h.01l.008.001h.01l.01.001h.01l.009.001.019.001h.01l.009.001h.01l.019.002h.01l.009.001h.01l.018.002h.01l.02.002h.018l.01.002h.019l.01.001.019.002.019.001h.01l.018.002.01.001h.009l.01.002.019.001h.01l.008.001.01.001.01.001h.01l.009.002.019.001.01.001h.009l.01.002h.009l.01.001.009.001.019.002.018.002h.01l.019.002.01.001.009.001.01.001.019.002.01.001.008.001.01.001.01.001h.009l.01.002.018.002h.01l.009.002.01.001h.008l.01.002.01.001.019.002.009.001.01.001.01.001.018.003h.01l.008.002h.01l.01.002.009.001.01.001.008.001.01.002h.01l.008.002.01.001.01.001.01.002h.009l.008.002.01.001.01.001.009.002h.01l.008.002.01.001.01.002h.009l.01.002.009.001.009.002.01.001.008.001.01.002h.01l.008.002.01.002h.01l.009.002.01.002h.008l.01.002.01.002.009.001.01.002h.008l.01.002.01.002.008.001.01.002.01.001.009.001.01.002.008.001.01.002.01.001.008.002.01.001a97.257 97.257 0 0 1 .018.003l.01.002.009.001.01.002.01.001.008.002.01.001.01.002.008.001.01.002.008.001.01.002.01.002a2.665 2.665 0 0 1 .019.003l.01.002.007.001.011.002.018.003.01.002.008.001.01.002.018.003.011.002h.001l.017.004.028.005.046.008c.243.046.483.1.72.16l-.493 1.938A10.044 10.044 0 0 0 12 2V0Zm5.753 1.467a11.844 11.844 0 0 1 1.402.899l.028.02a11.76 11.76 0 0 1 .038.029l.018.014h.001l.008.007h.001l.019.014.008.007h.001l.009.007a11.371 11.371 0 0 1 .02.015l.007.006.001.001a11.164 11.164 0 0 1 .02.015l.007.006h.001l.018.015.009.006.001.001.008.007.019.014.001.001.008.006.018.015h.001l.008.007h.002l.008.008.01.007.008.007h.001l.008.007h.001l.017.015h.002l.007.007h.002l.017.015.009.007.018.015.01.007v.001l.008.006.001.001.017.014.002.001a7.9 7.9 0 0 1 .026.022l.008.007h.002l.026.022.009.008.018.015.009.007.027.023.027.022.027.023c.142.121.282.245.419.373l-1.364 1.463a10.041 10.041 0 0 0-2.022-1.461l.96-1.754Zm4.345 4.048c.537.834.974 1.74 1.292 2.698l-1.898.631a9.958 9.958 0 0 0-1.076-2.247l1.682-1.082Zm1.872 5.634.006.09.001.018v.002l.002.017V11.298l.001.006v.014l.001.004v.005a4.941 4.941 0 0 1 .001.01v.005a3.926 3.926 0 0 1 0 .008l.001.008v.011l.001.01v.007a.654.654 0 0 1 .002.02V11.433l.001.012v.008l.001.013v.008l.001.018v.002a11.467 11.467 0 0 1 .002.025V11.553l.001.007v.019a.995.995 0 0 1 .001.02v.008l.001.012v.03l.001.009v.027a1.664 1.664 0 0 0 .001.023v.016l.001.004V11.775l.001.003V11.837l.001.006v.019a1.316 1.316 0 0 0 0 .011v.021a10.27 10.27 0 0 1 0 .018V11.964l.001.007v.012A9.798 9.798 0 0 1 24 12v.056a1.952 1.952 0 0 1 0 .01V12.137a15.082 15.082 0 0 1-.001.018v.004a6.062 6.062 0 0 1 0 .015V12.195a7.216 7.216 0 0 1 0 .009v.009l-.001.01v.008a2.28 2.28 0 0 1 0 .013v.019l-.001.006v.03a1.9 1.9 0 0 0-.001.013v.034l-.001.003V12.379l-.001.006V12.398a7.125 7.125 0 0 1 0 .009l-.001.007v.022l-.001.008V12.453a1.93 1.93 0 0 1 0 .013l-.001.006v.02l-.001.01V12.511a.944.944 0 0 1-.001.01V12.538l-.001.003V12.56l-.002.019v.021l-.001.006V12.62l-.001.006v.011l-.001.01v.012l-.001.006V12.677a6.74 6.74 0 0 1-.001.009V12.695l-.001.007v.012a14.1 14.1 0 0 1-.002.017v.012l-.001.007v.012l-.001.007v.002l-.002.019V12.81l-.001.007v.003l-.001.006v.003a8 8 0 0 1-.001.018l-.001.01v.011l-.001.007v.002l-.001.007v.012l-.001.006v.003l-.001.008v.001l-.001.01v.011l-.001.006v.003l-.001.007V12.96l-.001.003V12.972l-.001.007v.002l-.002.018V13.008l-.001.003v.006a1.291 1.291 0 0 1-.001.01v.002l-.001.007V13.045l-.001.002v.01a9.829 9.829 0 0 1-.003.027v.002l-.001.007V13.102l-.001.003v.007a.913.913 0 0 1-.002.01v.001l-.002.018v.012l-.001.006v.003a7.153 7.153 0 0 1-.001.01l-.001.006v.002l-.001.007v.003a14.156 14.156 0 0 1-.002.02v.007l-.001.002v.007l-.001.003v.006l-.001.003v.006l-.001.003V13.256l-.002.008-.002.02v.008l-.001.003v.006l-.001.003v.006a1.52 1.52 0 0 1-.002.012v.008l-.001.001-.002.019-.001.008v.003l-.001.006a1.472 1.472 0 0 1-.001.01v.002l-.001.006v.003l-.001.007v.002l-.003.018V13.424l-.001.003v.006l-.001.003v.006l-.001.003v.006l-.001.003-.001.007v.002l-.001.008v.001l-.003.018V13.5l-.001.003v.006l-.001.003-.001.006v.003l-.001.006v.003l-.001.007v.002l-.003.018v.002l-.001.007v.003l-.001.006v.003l-.001.006v.003a6.193 6.193 0 0 1-.003.015v.003l-.003.018V13.631l-.001.002-.001.007v.003l-.001.006v.003l-.002.005V13.666l-.001.004-.001.006v.003l-.002.008v.002a4.127 4.127 0 0 1-.001.01l-.001.006v.004l-.001.005-.001.004v.005l-.001.003-.001.006v.003l-.001.006v.003l-.002.007v.002a5.95 5.95 0 0 1-.002.012v.006l-.001.003-.001.005v.004l-.001.005v.004l-.002.005v.004l-.001.005v.004a4.416 4.416 0 0 1-.002.009v.004l-.002.009v.004l-.001.004v.005l-.002.004V13.858l-.002.004v.005l-.001.004v.004a4.344 4.344 0 0 1-.002.009v.005l-.002.008v.004l-.001.005-.001.004v.004l-.002.004V13.927l-.002.005v.004l-.001.005v.004l-.002.004v.004a10.45 10.45 0 0 1-.003.019v.003l-.002.005v.003l-.001.006v.003l-.001.005-.001.004v.005l-.002.003v.008l-.004.02v.003l-.002.006v.002l-.001.006v.003l-.002.006v.002l-.001.006v.003l-.002.006v.001l-.005.031v.001l-.002.007v.001l-.001.007v.002l-.002.006v.001l-1.968-.354a10.107 10.107 0 0 0 .133-2.494l1.995-.14Zm-2.873 5.01 1.818.833a11.965 11.965 0 0 1-.487.95l-.009.015-.009.016-.04.07a11.877 11.877 0 0 1-.051.086 11.956 11.956 0 0 1-.06.101h-.001l-.033.054-.053.085-.053.084-.01.015-.019.03a11.758 11.758 0 0 1-.079.12v.001a12.63 12.63 0 0 1-.02.03 10.643 10.643 0 0 1-.02.03l-.005.008-.005.007a5.932 5.932 0 0 1-.025.037v.001l-.01.014-.006.008-.005.007-.005.008a8.899 8.899 0 0 1-.005.008l-.005.007a12.412 12.412 0 0 1-.02.03h-.001l-.01.014v.001l-.005.007-.005.007a8.654 8.654 0 0 1-.006.008l-.004.007a.218.218 0 0 0-.006.007l-.005.008a13.591 13.591 0 0 1-.01.015l-.005.007a11.21 11.21 0 0 1-.011.015l-.005.007-.005.007a.3.3 0 0 1-.005.008h-.001l-.004.007-.006.007v.002a6.285 6.285 0 0 1-.005.005v.001l-.005.007-.001.001-.004.006a7.768 7.768 0 0 1-.005.007l-.001.002a7.509 7.509 0 0 1-.005.006l-.005.007-.001.002a12.94 12.94 0 0 1-.005.006l-.004.006-.001.002a7.419 7.419 0 0 1-.005.006v.001l-.005.006v.001l-.005.007-.002.001c0 .002-.002.004-.003.005l-.001.002-.005.006-.001.002-.004.005v.002c-.002.002-.004.003-.005.006l-.002.002-.003.005-.002.002-.004.005-.001.002a4.263 4.263 0 0 1-.005.006v.002l-.004.004-.002.002-.004.006-.002.002c0 .002-.002.003-.003.005l-.002.002c0 .002-.002.004-.004.005l-.001.003-.003.004a1.96 1.96 0 0 1-.006.008l-.002.003a6.18 6.18 0 0 1-.005.006l-.004.005-.002.003-.003.004-.003.004-.002.003-.003.003-.002.004-.004.004-.002.003-.002.004a5.716 5.716 0 0 1-.003.004l-.003.004-.002.002-.005.007-.001.002-.003.003-.002.003-.004.005-.002.003-.003.003-.002.003a6.409 6.409 0 0 1-.004.006l-.002.002-.003.004-.001.002-.005.006-.001.002-.003.004-.002.002-.004.006-.002.003-.003.003a2.866 2.866 0 0 1-.006.008l-.002.003-.003.003a12.635 12.635 0 0 1-.028.037l-.007.01-.01.013-.011.014-.16.202-1.555-1.257a10.01 10.01 0 0 0 1.313-2.12Zm-3.11 3.852 1.198 1.601a12.165 12.165 0 0 1-1.705 1.066l-.001.001-.016.008-.016.008-.024.013-.016.008h-.001l-.015.008h-.001l-.008.004-.008.004a5.426 5.426 0 0 1-.009.005l-.007.003-.008.004-.001.001-.007.003h-.001l-.007.004-.002.001-.006.003h-.001a8.454 8.454 0 0 1-.007.004l-.002.001-.007.004-.007.003-.002.001-.007.004h-.001l-.007.003a.84.84 0 0 1-.008.005h-.002l-.008.004a9.491 9.491 0 0 1-.016.008l-.006.003-.008.004a6.882 6.882 0 0 1-.032.016l-.009.004-.009.004-.007.003a9.82 9.82 0 0 1-.009.005l-.007.003-.009.004a5.522 5.522 0 0 1-.007.004l-.007.003-.006.003-.002.001a8.69 8.69 0 0 1-.015.007h-.001a5.976 5.976 0 0 1-.008.004l-.002.001-.015.007h-.001l-.015.008-.016.007c-.157.073-.315.143-.475.21l-.765-1.849a9.992 9.992 0 0 0 2.166-1.234Zm-4.57 1.89.281 1.98a11.952 11.952 0 0 1-.174.023l-.007.001-.01.001-.01.001-.007.001a10.569 10.569 0 0 1-.065.008l-.01.002h-.01l-.009.002a10.743 10.743 0 0 1-.047.005l-.009.001a9.803 9.803 0 0 1-.038.004 12.089 12.089 0 0 1-1.001.066h-.02l-.01.001H12.254a12.903 12.903 0 0 1-.135.002H12.059A8.11 8.11 0 0 1 12 24a9.87 9.87 0 0 1-.024 0h-.02a8.635 8.635 0 0 1-.02 0h-.03a17.514 17.514 0 0 1-.02 0h-.01a17.095 17.095 0 0 1-.124-.003h-.01a17.553 17.553 0 0 1-.02 0h-.01a15.836 15.836 0 0 1-.02 0l-.01-.001a8.837 8.837 0 0 1-.08-.002h-.011l-.01-.001a10.444 10.444 0 0 1-.02 0l-.01-.001h-.01l-.01-.001h-.02c-.271-.012-.54-.031-.805-.06l.213-1.989c.825.089 1.678.075 2.499-.041ZM6.29 20.21a9.975 9.975 0 0 0 2.206 1.158l-.7 1.873a12.01 12.01 0 0 1-.674-.276h-.001a11.81 11.81 0 0 1-.058-.026h-.001l-.016-.007-.016-.008h-.001a9.865 9.865 0 0 1-.016-.008l-.008-.003-.008-.004h-.001a12.728 12.728 0 0 1-.024-.011H6.97a8.814 8.814 0 0 1-.015-.008h-.002l-.007-.004a8.473 8.473 0 0 1-.008-.004h-.001a13.21 13.21 0 0 1-.016-.008l-.008-.003h-.001a13.97 13.97 0 0 1-.015-.008h-.002l-.015-.008a11.02 11.02 0 0 1-.016-.008h-.001a4.933 4.933 0 0 1-.015-.007h-.002a7.052 7.052 0 0 1-.015-.008 9.15 9.15 0 0 1-.01-.005l-.007-.003-.008-.004h-.001l-.007-.004a12.374 12.374 0 0 1-.008-.004H6.79l-.008-.004-.007-.004h-.001l-.008-.004-.008-.004a5.945 5.945 0 0 1-.008-.004h-.001a13.785 13.785 0 0 1-.008-.004l-.007-.004a.62.62 0 0 0-.017-.008l-.016-.008h-.001l-.008-.004a9.286 9.286 0 0 1-.048-.024h-.001a12.456 12.456 0 0 1-.032-.016l-.008-.005a11.31 11.31 0 0 1-.064-.033h-.001a12.001 12.001 0 0 1-1.392-.836l1.144-1.64Zm-3.24-3.746c.372.745.838 1.442 1.385 2.074l-1.512 1.309a12.022 12.022 0 0 1-1.662-2.489l1.79-.894Zm-3.04-4.91 1.998.073a10.075 10.075 0 0 0 .217 2.488l-1.955.42c-.016-.07-.03-.14-.044-.21v-.002l-.002-.008v-.002l-.002-.008v-.002l-.001-.007v-.003l-.002-.006v-.004a6.991 6.991 0 0 1-.003-.01v-.005l-.002-.004v-.005l-.001-.004-.001-.006-.001-.004-.001-.005-.001-.005v-.004l-.002-.005v-.004a4.37 4.37 0 0 0-.002-.01l-.001-.005-.001-.004-.001-.005v-.004l-.002-.006v-.002a11.962 11.962 0 0 1-.008-.043v-.001l-.002-.008v-.002l-.001-.007v-.002l-.002-.008v-.001l-.002-.008v-.002l-.001-.007v-.002l-.002-.008v-.002l-.002-.007v-.002l-.001-.008a.42.42 0 0 1-.002-.009v-.001l-.001-.008v-.002l-.002-.008c-.063-.367-.11-.74-.138-1.118v-.01l-.001-.009-.001-.01v-.009a12.032 12.032 0 0 1-.01-.143l-.001-.009V12.722l-.001-.008v-.001a5.443 5.443 0 0 1 0-.01l-.001-.008v-.002a5.532 5.532 0 0 1 0-.01l-.001-.007v-.012l-.001-.008V12.646l-.001-.01a12.295 12.295 0 0 1-.004-.066V12.543l-.001-.003v-.02l-.001-.006V12.5l-.001-.007V12.471l-.001-.006v-.004a6.612 6.612 0 0 1 0-.016l-.001-.003a8.899 8.899 0 0 1 0-.009v-.008l-.002-.038V12.357l-.001-.006v-.033l-.001-.006v-.02a3.677 3.677 0 0 1 0-.014l-.001-.005v-.015a4.786 4.786 0 0 0 0-.01v-.02l-.001-.005v-.035a3.11 3.11 0 0 1 0-.014v-.01L0 12.159a2.088 2.088 0 0 1 0-.01v-.005a3.862 3.862 0 0 1 0-.01V12.064a3.346 3.346 0 0 1 0-.01v-.014L0 12.034V11.913c.001-.12.004-.24.008-.358Zm1.678-5.694 1.718 1.024a9.944 9.944 0 0 0-.999 2.282L.488 8.602c.23-.784.54-1.534.917-2.242l.009-.016.004-.008.004-.007v-.002l.004-.007.001-.001.003-.005.002-.003.003-.006.001-.003.003-.004.001-.003.003-.005.002-.004.002-.003.003-.006.002-.003.002-.004.001-.002.004-.008V6.26l.009-.014v-.001c.071-.13.144-.257.22-.383Zm4.206-4.193 1.02 1.72c-.718.425-1.381.94-1.973 1.53L3.528 3.5a11.69 11.69 0 0 1 .697-.642l.009-.007.026-.023.027-.022.027-.023.009-.007.018-.015.009-.007v-.001l.027-.022.009-.007.018-.015.001-.001.008-.006v-.001l.018-.014.002-.002.007-.005.001-.002.009-.007a10.482 10.482 0 0 1 .01-.007l.007-.007.002-.001.007-.006h.001l.01-.008.007-.007.003-.001.006-.006.002-.001.017-.014.002-.001.007-.006.002-.001.007-.006.001-.001.009-.007.001-.001.007-.005.003-.002.006-.005.002-.002.009-.007a.746.746 0 0 1 .008-.006l.002-.002a17.494 17.494 0 0 1 .017-.013 6.731 6.731 0 0 1 .012-.01l.005-.004.003-.002.006-.005c.001 0 .002 0 .003-.002l.008-.006.002-.002.006-.004.003-.003.006-.004.003-.002.008-.007.002-.002.006-.004.003-.003c.002 0 .004-.002.006-.004l.003-.002.006-.005.003-.002.007-.006.003-.002.006-.004.003-.003.005-.004.004-.002.007-.006.004-.003.005-.004.003-.002.005-.004.004-.003.008-.006.003-.002.005-.004.004-.003.005-.004.003-.002.006-.005.004-.002.006-.005.004-.003.005-.004.004-.003.005-.004c.001 0 .002 0 .003-.002a10.774 10.774 0 0 1 .016-.012l.004-.003.005-.004.003-.002a20.522 20.522 0 0 1 .012-.008l.005-.004.004-.003.004-.003.004-.003a5.257 5.257 0 0 1 .016-.012l.004-.003a6.724 6.724 0 0 1 .009-.006l.004-.004c.002 0 .003-.002.004-.003l.008-.005.004-.003.004-.003.005-.004.004-.003.004-.003c.002 0 .003-.002.004-.003l.008-.006.004-.002.005-.004.003-.002.005-.004.004-.003.008-.005.004-.003.004-.003.004-.003.005-.004.004-.002.006-.005.006-.004.004-.003.004-.003.005-.003.004-.003.004-.003.005-.004.007-.005.004-.003c.002 0 .003-.002.005-.003l.004-.003.004-.003c.002 0 .003-.002.004-.003l.008-.006.004-.002.005-.004.004-.002.005-.004.003-.002.01-.007.002-.002c.002 0 .004-.002.005-.003l.004-.003.005-.003.003-.003.005-.003a3.58 3.58 0 0 1 .013-.009l.003-.002a4.769 4.769 0 0 1 .014-.01l.003-.002a11.308 11.308 0 0 1 .012-.008l.006-.004.003-.002.005-.004.003-.002a12.808 12.808 0 0 1 .013-.009l.005-.003.003-.003c.002 0 .003-.002.005-.003l.004-.002.005-.004.002-.002.01-.007.004-.002.005-.003.003-.002.005-.004.003-.002a9.094 9.094 0 0 1 .013-.009l.005-.003.004-.003.005-.003a3.683 3.683 0 0 0 .024-.016l.005-.004.004-.002.005-.004a.333.333 0 0 1 .013-.008l.003-.002a5.231 5.231 0 0 1 .008-.006l.006-.004.002-.001.012-.008.001-.001.006-.004.003-.002.006-.003.002-.002.02-.013.002-.001.006-.004.002-.002.02-.012.002-.002.005-.004.003-.001.006-.004.001-.001a11.397 11.397 0 0 1 .02-.013l.003-.002.006-.004.002-.001.02-.013.002-.001.006-.004.002-.002.02-.012.002-.002.006-.003a1.965 1.965 0 0 1 .009-.006l.022-.014.002-.001.006-.004a.787.787 0 0 1 .022-.014l.002-.001.006-.004.002-.002.02-.012.002-.001.007-.004.002-.002.006-.004h.001c.007-.005.014-.01.021-.013l.002-.002.007-.004h.001l.021-.014h.002l.006-.005h.002l.021-.014h.001l.007-.004.002-.002c.002 0 .004-.002.006-.004l.022-.013.002-.001.007-.004.001-.001.022-.013.008-.005A13.915 13.915 0 0 1 5.84 1.7l.007-.004a.82.82 0 0 1 .03-.019h.002a9.07 9.07 0 0 1 .007-.005l.007-.004Zm5.7-1.661.067 1.999c-.837.028-1.666.16-2.463.392l-.56-1.92A11.786 11.786 0 0 1 9.922.18l.01-.002.018-.003h.001L9.968.17l.01-.001.018-.003.01-.002.008-.001.009-.002.01-.002.008-.001.01-.002h.009l.01-.003.01-.001.008-.001.01-.002.008-.001.01-.002.01-.001.008-.002.01-.001.008-.002.01-.001.008-.001.01-.002.01-.001a3.652 3.652 0 0 1 .026-.004l.01-.002.01-.001.007-.001.011-.002.008-.001.01-.002h.01V.121l.008-.001.01-.002h.006l.012-.002.016-.002h.001l.012-.002a10.022 10.022 0 0 1 .063-.009c.389-.051.783-.084 1.183-.097Z" fill="#000"/></g><text transform="translate(12 16)" stroke="#000" font-size="12" font-family="SegoeUI, Segoe UI" letter-spacing=".04em"><tspan x="-4.207" y="0">D</tspan></text></g></svg>