<svg xmlns="http://www.w3.org/2000/svg" width="1101.228" height="87.274" viewBox="0 0 1101.228 87.274">
  <g id="Group_234" data-name="Group 234" transform="translate(-414.483 -5594.176)">
    <path id="Path_48" data-name="Path 48" d="M2451.527,5079.5s82.016,3.676,105.7,48.055,92.691,47.258,114.152,16.367,40.207-53.973,62.645-52.719,150.359-32.191,190.328,22.77,86.484,10.336,76.578-12.012-36.57-22.141-45.184,0,27.9,58.582,55.508,51.352,147.555-132.41,307.32-39.34,183.418-42.457,233.984-34.473" transform="translate(-2037 516)" fill="none" stroke="#60BAB2" stroke-width="2" stroke-dasharray="3"/>
    <path id="Path_49" data-name="Path 49" d="M11.013.287c6.857,0,14.557,5.2,14.557,12.058s-7.247,19.108-14.1,19.108S-2.1,20.571-2.1,13.715,4.156.287,11.013.287Z" transform="translate(932.895 5609.531) rotate(13)" fill="#cbc9f2"/>
  </g>
</svg>
