<svg id="User" xmlns="http://www.w3.org/2000/svg" width="14.283" height="19.997" viewBox="0 0 14.283 19.997">
  <path id="Path_17" data-name="Path 17" d="M16.712,25.712H9.571A3.571,3.571,0,0,1,6,22.142v-.714A6.427,6.427,0,0,1,12.427,15h1.428a6.427,6.427,0,0,1,6.427,6.427v.714A3.571,3.571,0,0,1,16.712,25.712Zm-4.285-9.284a5,5,0,0,0-5,5v.714a2.142,2.142,0,0,0,2.142,2.142h7.142a2.142,2.142,0,0,0,2.142-2.142v-.714a5,5,0,0,0-5-5Z" transform="translate(-6 -5.716)" fill="#fff"/>
  <path id="Path_18" data-name="Path 18" d="M14.285,10.57A4.285,4.285,0,1,1,18.57,6.285a4.285,4.285,0,0,1-4.285,4.285Zm0-7.142a2.857,2.857,0,1,0,2.857,2.857A2.857,2.857,0,0,0,14.285,3.428Z" transform="translate(-7.143 -2)" fill="#fff"/>
</svg>
